<svg width="24" height="24" viewBox="0 0 24 24" fill="none" xmlns="http://www.w3.org/2000/svg">
<path fill-rule="evenodd" clip-rule="evenodd" d="M11.7808 2.00049C14.3946 2.00049 16.5539 3.99215 16.8202 6.53941L16.8945 6.54029C18.3445 6.54029 20.1075 7.50329 20.7025 10.2043L21.4915 16.3113C21.7745 18.2823 21.4205 19.8633 20.4375 20.9973C19.4595 22.1253 17.9115 22.7223 15.9605 22.7223H7.61247C5.46947 22.7223 3.97647 22.1973 3.04747 21.1183C2.11447 20.0363 1.80247 18.4133 2.12047 16.2953L2.89647 10.2693C3.40647 7.50629 5.27147 6.54029 6.71547 6.54029C6.84013 5.39076 7.35847 4.29719 8.18077 3.47749C9.12577 2.53849 10.4288 2.00049 11.7598 2.00049H11.7808ZM16.8945 8.04029H6.71547C6.27447 8.04029 4.80047 8.21829 4.37747 10.5023L3.60547 16.5023C3.35447 18.1853 3.54847 19.4033 4.18347 20.1403C4.81047 20.8683 5.93247 21.2223 7.61247 21.2223H15.9605C17.0085 21.2223 18.4395 21.0133 19.3035 20.0153C19.9895 19.2243 20.2255 18.0463 20.0055 16.5133L19.2265 10.4613C18.8945 8.97029 18.0185 8.04029 16.8945 8.04029ZM14.6973 10.8244C15.1113 10.8244 15.4703 11.1604 15.4703 11.5744C15.4703 11.9884 15.1573 12.3244 14.7433 12.3244H14.6973C14.2833 12.3244 13.9473 11.9884 13.9473 11.5744C13.9473 11.1604 14.2833 10.8244 14.6973 10.8244ZM8.86717 10.8244C9.28117 10.8244 9.64017 11.1604 9.64017 11.5744C9.64017 11.9884 9.32617 12.3244 8.91217 12.3244H8.86717C8.45317 12.3244 8.11717 11.9884 8.11717 11.5744C8.11717 11.1604 8.45317 10.8244 8.86717 10.8244ZM11.7778 3.50049H11.7628C10.8218 3.50049 9.90477 3.87949 9.23977 4.54049C8.69807 5.07975 8.34379 5.78868 8.22918 6.53982L15.3085 6.5401C15.0515 4.82187 13.5657 3.50049 11.7778 3.50049Z" fill="#3A2D32"/>
</svg>
