<svg width="363" height="318" viewBox="0 0 363 318" fill="none" xmlns="http://www.w3.org/2000/svg">
<path d="M352.214 18.3636C360.141 27.9993 363.085 41.0863 361.485 56.6327C359.884 72.1841 353.741 90.1163 343.601 109.302C323.322 147.67 287.151 190.87 239.873 229.765C192.594 268.66 143.233 295.827 101.676 308.33C80.895 314.583 62.115 317.154 46.5467 315.727C30.9835 314.301 18.7091 308.89 10.782 299.255C2.85489 289.619 -0.088375 276.532 1.51165 260.986C3.1122 245.434 9.2549 227.502 19.3955 208.316C39.6744 169.948 75.8453 126.748 123.124 87.8531C170.402 48.9578 219.764 21.7916 261.321 9.28793C282.101 3.03545 300.881 0.464207 316.45 1.89107C332.013 3.31748 344.287 8.72796 352.214 18.3636Z" stroke="#F0A395" stroke-opacity="0.5" stroke-width="2"/>
</svg>
