<svg width="262" height="455" viewBox="0 0 262 455" fill="none" xmlns="http://www.w3.org/2000/svg">
<path fill-rule="evenodd" clip-rule="evenodd" d="M259.645 6.11862e-05C258.797 1.27179 258.444 1.83701 258.02 2.40222C253.077 8.97287 249.617 16.1794 247.286 24.0218C245.097 31.511 245.097 38.8588 247.922 46.1359C248.981 48.962 250.182 51.7881 251.453 54.5436C253.218 58.5707 255.125 62.4566 256.749 66.4838C257.95 69.2392 258.868 72.2066 259.786 75.1033C262.822 84.6414 261.41 93.6142 256.325 102.092C253.501 106.826 250.676 111.63 248.063 116.435C244.532 123.005 243.19 130.071 244.108 137.56C244.391 139.609 244.603 141.728 244.956 143.777C246.18 152.303 244.438 160.145 239.73 167.304C236.999 171.402 234.221 175.477 231.397 179.527C227.795 184.755 224.405 190.054 221.58 195.777C217.555 203.973 215.79 212.592 216.637 221.707C216.92 224.462 217.273 227.288 217.696 230.044C219.815 242.69 219.25 255.337 216.637 267.842C214.589 277.734 209.575 286.141 202.584 293.348C197.64 298.506 191.849 302.533 185.352 305.429C180.338 307.69 175.183 309.669 170.099 311.717C164.096 314.12 158.093 316.451 152.161 318.924C149.831 319.842 147.641 320.902 145.452 322.033C139.308 325.141 135 329.875 132.246 336.163C130.834 339.342 129.775 342.734 128.362 345.984C126.95 349.163 125.537 352.413 123.842 355.451C121.512 359.832 117.84 362.94 113.461 365.131C110.495 366.638 107.6 368.216 104.775 369.864C98.2074 373.75 94.1821 379.614 91.9929 386.821C89.1681 396.147 88.815 405.544 90.6511 415.011C91.1454 417.908 91.7104 420.804 92.4166 423.631C93.7584 428.788 95.5239 433.734 98.278 438.326C100.114 441.435 101.95 444.614 103.857 447.652C104.846 449.348 105.905 451.114 107.812 452.033C108.377 452.315 108.589 453.022 108.306 453.587C108.024 454.011 107.388 454.435 106.964 454.435C106.329 454.506 105.552 454.294 104.987 453.87C104.21 453.234 103.433 452.457 102.868 451.609C99.9023 446.804 96.795 442.071 94.1821 437.125C91.2161 431.614 89.5918 425.609 88.3913 419.462C87.4732 414.587 86.767 409.712 85.9902 404.908C85.284 400.598 84.719 396.288 83.801 392.049C82.5298 385.832 80.1287 379.967 77.0214 374.386C75.1853 371.207 72.9961 368.31 70.1713 365.908C67.4171 363.576 64.5923 361.315 61.6969 359.125C56.9654 355.451 51.5276 353.897 45.5956 353.756C42.5589 353.756 39.5223 353.967 36.4856 354.038C32.884 354.179 29.2117 354.462 25.6101 354.391C23.1384 354.321 20.6667 354.038 18.3363 353.473C14.3109 352.554 11.2743 350.223 9.65001 346.408C8.66134 344.147 7.95513 341.745 7.46079 339.342C6.04839 331.995 6.40149 324.647 7.88451 317.37C9.08506 311.576 10.2856 305.853 11.4155 300.131C12.6867 293.56 11.9099 287.272 9.22629 281.196C7.88451 278.158 6.47211 275.19 5.13032 272.223C1.38747 264.098 -0.30739 255.549 0.0456972 246.576C0.328167 239.794 1.95243 233.364 4.98909 227.288C9.01441 219.163 14.2403 211.815 20.3136 205.033C24.9274 199.946 30.3887 195.989 36.6974 193.163C41.7821 190.973 47.0079 189.207 52.2338 187.582C55.0586 186.663 57.8834 185.886 60.6376 184.967C62.968 184.12 65.2985 183.272 67.4877 182.141C72.2899 179.81 75.8209 176.136 78.0101 171.261C80.1287 166.386 81.753 161.37 83.0947 156.283C84.8602 149.359 87.9675 143.141 92.4872 137.56C96.5831 132.544 101.527 128.728 107.388 125.973C112.473 123.571 117.91 122.016 123.419 120.886C128.715 119.826 134.012 118.766 139.238 117.636C142.133 117 144.958 116.223 147.783 115.375C149.76 114.739 151.737 114.033 153.715 113.185C163.531 109.016 169.251 101.315 171.793 91.212C172.994 86.4783 173.488 81.5327 174.336 76.6577C176.807 62.4566 182.739 49.9511 192.909 39.4946C197.852 34.4783 203.149 29.8153 208.939 25.8588C220.733 17.9457 233.374 11.3751 246.086 5.15769C249.687 3.39139 253.359 1.69571 257.173 0.635926C257.738 0.494629 258.303 0.353333 259.645 6.11862e-05ZM80.9055 345.701C81.3293 345.065 81.6824 344.641 81.8942 344.147C85.0721 338.141 89.3799 333.125 94.8883 329.169C102.798 323.375 111.484 318.924 121.018 316.592C125.679 315.462 130.41 314.473 135.142 313.766C142.839 312.707 150.537 311.929 158.164 310.94C162.401 310.446 166.497 309.669 170.522 308.256C176.172 306.277 181.751 304.087 187.047 301.261C199.053 294.761 207.668 285.223 212.329 272.294C214.377 266.359 215.154 260.212 215.507 253.995C215.507 253.783 215.366 253.571 215.295 253.217C214.872 253.429 214.448 253.571 214.095 253.853C211.835 255.832 209.293 257.245 206.68 258.587C200.795 261.554 194.721 264.027 188.46 266.006C179.562 268.761 170.522 270.527 161.271 271.446C152.302 272.364 143.263 273 134.294 273.707C127.656 274.272 121.018 274.978 114.45 276.25C106.187 277.804 98.4193 280.842 91.216 285.011C87.8969 286.919 84.8602 289.179 82.3179 291.935C76.8096 297.799 73.7729 304.582 74.4085 312.919C75.1853 323.728 77.4451 334.256 80.1993 344.712C80.2699 344.995 80.5524 345.207 80.9055 345.701ZM77.5158 283.033C78.222 282.891 78.3632 282.962 78.4338 282.891C78.8575 282.609 79.2342 282.303 79.5638 281.973C89.5212 272.788 101.244 266.924 114.168 263.25C120.947 261.342 127.868 260.141 134.859 259.011C143.757 257.527 152.655 255.973 161.483 254.277C168.545 252.935 175.395 251.027 182.175 248.625C187.189 246.929 191.991 244.81 196.652 242.266C202.513 239.016 207.598 234.707 211.694 229.337C213.389 227.147 214.095 224.957 213.742 222.131C212.753 214.5 213.883 207.011 216.708 199.734C218.332 195.565 220.239 191.538 222.499 187.723C223.417 186.239 223.417 186.239 223.487 184.685C223.205 184.897 222.922 185.109 222.64 185.321C208.233 197.614 191.567 204.821 172.994 207.788C166.285 208.919 159.506 209.413 152.726 209.908C147.359 210.332 141.992 210.897 136.695 211.533C132.317 212.098 128.221 213.37 124.196 215.065C121.724 216.054 119.535 217.326 117.699 219.234C113.391 223.685 108.871 227.995 104.704 232.587C92.6991 245.94 84.0128 261.201 78.7163 278.37C78.2926 279.853 78.0101 281.337 77.5158 283.033ZM170.24 103.223C169.322 104.353 168.827 104.848 168.474 105.413C165.438 109.723 161.412 112.902 156.681 115.092C153.927 116.364 151.031 117.495 148.136 118.342C143.122 119.756 138.178 121.027 133.094 122.016C130.481 122.511 128.927 123.783 127.727 125.973C125.396 130.212 123.913 134.804 123.066 139.538C121.936 146.321 122.148 153.103 123.56 159.815C124.549 164.62 125.82 169.424 126.879 174.228C128.009 179.103 129.139 184.049 129.986 188.995C130.834 193.658 131.046 198.321 130.41 203.054C130.339 203.478 130.339 203.902 130.339 204.679C131.187 204.256 131.823 203.973 132.317 203.62C136.06 201.147 139.803 198.745 143.545 196.272C149.619 192.174 155.763 188.006 161.907 183.837C163.248 182.919 164.449 181.859 165.367 180.446C169.18 174.37 172.358 168.011 174.336 161.016C177.443 149.995 178.079 138.902 175.536 127.669C173.771 119.826 171.228 112.054 170.24 103.223ZM70.595 306.701C70.7833 306.654 70.9481 306.607 71.0894 306.56C71.1364 305.995 71.1835 305.429 71.2306 304.864C71.5131 301.261 71.6543 297.658 72.1487 294.054C73.1373 286.353 75.2559 278.864 77.7982 271.587C78.4338 269.75 78.6457 267.984 78.5751 266.076C78.2926 260.66 77.3275 255.361 75.6797 250.179C74.5968 246.835 73.4904 243.515 72.3605 240.217C69.112 230.962 66.499 221.636 64.9454 211.957C63.7449 204.397 63.2505 196.837 64.3805 189.207C64.4511 188.571 64.3098 187.935 64.3098 187.228C63.8861 187.228 63.6036 187.158 63.3918 187.228C57.1772 189.207 50.8214 191.044 44.6775 193.304C40.7228 194.717 36.9799 196.696 33.0958 198.391C30.4829 199.592 28.9999 201.641 27.9406 204.326C24.9039 212.31 24.1977 220.435 25.3276 228.842C26.5282 237.745 29.9179 245.799 34.6495 253.359C39.381 261.06 45.0306 268.054 50.8214 274.978C53.8345 278.558 56.7771 282.208 59.6489 285.929C63.8155 291.37 66.9934 297.375 69.3945 303.804C69.7476 304.794 70.1713 305.712 70.595 306.701ZM127.373 123.712C126.738 123.5 126.526 123.429 126.314 123.429C120.876 124.419 115.509 125.761 110.425 127.881C106.823 129.435 103.433 131.272 100.467 133.815C99.3373 134.804 98.278 135.935 97.4306 137.207C96.23 139.185 95.1707 141.304 94.1821 143.424C88.7443 155.223 86.4139 167.658 86.0608 180.587C85.7077 192.81 86.767 204.962 88.3912 217.044C89.5212 225.804 90.6511 234.495 90.7923 243.326C90.7923 243.679 90.9336 243.962 91.0748 244.598C91.5691 244.103 92.0635 243.821 92.4166 243.397C94.747 240.288 96.9363 237.109 99.408 234.141C107.176 224.886 115.651 216.337 125.325 208.919C127.515 207.223 128.786 205.174 128.927 202.489C129.139 200.299 129.28 198.038 129.21 195.848C129.068 190.408 128.08 185.109 126.808 179.881C125.537 174.511 124.125 169.141 122.924 163.772C121.865 159.321 121.088 154.799 120.947 150.207C120.735 141.658 122.077 133.391 126.314 125.761C126.667 125.196 126.95 124.56 127.373 123.712ZM243.331 10.0327C242.484 10.386 241.707 10.5979 241.072 10.9512C237.682 12.7175 234.363 14.4131 231.044 16.1794C223.628 20.2066 216.284 24.3751 209.363 29.2501C204.49 32.712 200.041 36.6686 195.734 40.837C192.485 43.9457 190.437 47.6196 189.166 51.8587C188.318 54.5435 187.612 57.299 187.189 60.0544C185.423 70.087 185.635 80.1196 187.047 90.1522C187.895 96.087 188.813 102.022 189.801 107.886C190.931 115.163 191.708 122.511 192.132 129.929C192.485 136.147 192.344 142.364 191.143 148.511C190.72 150.772 190.225 153.033 189.731 155.294C190.649 154.799 191.284 154.163 191.708 153.457C197.57 143.565 201.524 132.897 203.996 121.734C205.832 113.397 206.68 104.848 207.456 96.299C208.021 89.0925 208.375 81.8153 208.869 74.6088C209.434 67.1903 210.705 59.9131 212.824 52.8479C215.507 44.1577 220.239 36.6686 225.535 29.462C230.267 23.1033 235.704 17.5218 241.636 12.2935C242.272 11.7283 243.261 11.3751 243.331 10.0327ZM75.5384 341.179C75.7503 340.826 75.9621 340.614 75.8915 340.473C75.1853 337.506 74.691 334.467 73.7023 331.571C71.16 324.082 67.6996 317.087 63.1799 310.587C57.6009 302.533 51.457 295.044 44.3244 288.332C40.2284 284.516 36.1325 280.631 32.2484 276.533C19.7487 263.391 11.4861 247.989 8.94381 229.761C8.8732 229.266 8.66133 228.772 8.52009 228.207C8.09637 228.419 7.81388 228.489 7.74327 228.631C5.90715 232.446 4.42411 236.402 3.71791 240.571C1.95241 250.745 3.36482 260.495 7.39017 269.891C8.59071 272.647 9.93248 275.402 11.2036 278.158C12.8985 282.044 14.2403 286 14.8759 290.239C15.0171 291.652 15.5115 292.995 16.0058 294.266C18.6894 300.484 23.0678 305.288 28.2937 309.457C32.4603 312.848 37.0506 315.603 41.7821 318.288C47.4317 321.397 53.1519 324.364 58.7309 327.614C64.4511 330.864 69.7476 334.679 74.0554 339.766C74.5497 340.261 75.0441 340.685 75.5384 341.179ZM88.6737 385.196C88.8621 385.243 89.0739 385.266 89.3093 385.266C89.4976 384.748 89.686 384.207 89.8743 383.641C92.5578 376.294 97.2188 370.641 103.998 366.756C106.682 365.272 109.365 363.859 112.049 362.446C116.216 360.397 119.464 357.5 121.583 353.402C122.571 351.565 123.56 349.658 124.337 347.75C125.608 344.712 126.667 341.603 127.938 338.565C128.998 335.951 130.198 333.408 131.611 330.935C134.577 325.848 138.743 321.962 144.04 319.419C147.712 317.582 151.525 316.027 155.268 314.332C156.116 313.908 157.034 313.484 157.881 313.06C156.963 312.636 156.186 312.636 155.41 312.777C148.771 313.554 142.133 314.332 135.565 315.179C132.952 315.462 130.41 315.957 127.938 316.381C116.357 318.571 105.693 323.022 96.1594 329.946C93.0522 332.277 90.1568 334.821 87.7557 337.859C85.3546 340.826 83.3066 343.935 82.0355 347.538C81.6117 348.739 81.4705 349.94 81.8236 351.283C82.671 354.321 83.3772 357.429 84.2953 360.467C86.3433 367.815 87.7557 375.304 88.3206 382.935C88.3206 383.712 88.5325 384.489 88.6737 385.196ZM214.377 228.701C213.812 228.913 213.671 228.913 213.671 228.984C213.341 229.361 213.035 229.737 212.753 230.114C208.375 236.12 202.796 240.641 196.299 244.103C191.826 246.458 187.189 248.46 182.386 250.109C175.748 252.37 168.969 254.348 162.048 255.62C153.079 257.315 144.04 258.799 135.071 260.424C129.28 261.484 123.489 262.544 117.769 263.815C111.131 265.299 104.775 267.701 98.6311 270.669C91.2867 274.272 84.719 278.935 78.8576 284.658C77.0214 286.424 75.9621 288.544 75.609 291.087C75.3266 293.277 74.9028 295.467 74.691 297.658C74.6203 298.294 74.8322 298.859 74.9735 300.06C78.5751 292.571 83.9422 287.625 90.4392 283.81C97.7837 279.5 105.623 276.462 114.026 274.908C119.747 273.777 125.537 273 131.399 272.506C139.026 271.94 146.582 271.375 154.209 270.739C163.107 270.033 171.935 268.761 180.621 266.712C190.013 264.451 198.982 261.06 207.527 256.538C209.787 255.337 211.976 253.995 213.812 252.087C215.225 250.745 216.001 249.19 216.001 247.141C216.072 241.842 215.648 236.614 214.872 231.386C214.73 230.538 214.589 229.761 214.377 228.701ZM205.338 129.294C206.044 129.152 206.327 129.152 206.468 129.011C210.352 125.761 214.801 123.429 219.109 120.815C222.852 118.625 226.594 116.435 230.125 113.962C237.964 108.451 244.249 101.669 248.557 93.049C252.371 85.3479 254.066 77.1523 253.43 68.5327C253.289 66.5544 252.865 64.6468 251.947 62.8098C250.323 59.4185 248.769 56.0273 247.215 52.636C246.933 52.1414 246.862 51.4349 245.803 51.5762C245.591 52.1414 245.309 52.7066 245.026 53.3425C243.826 56.5218 242.131 59.4892 240.224 62.3153C233.021 72.6305 224.052 81.0382 213.389 87.7501C212.612 88.2447 211.906 88.8098 211.129 89.3044C209.858 102.728 208.728 116.011 205.338 129.294ZM241.99 150.913C241.001 152.185 240.436 152.962 239.871 153.669C237.894 156 236.128 158.473 233.939 160.592C218.968 174.935 201.454 184.614 180.974 188.783C176.666 189.631 172.217 190.266 167.768 190.832C163.178 191.467 158.517 192.245 154.068 193.728C152.655 194.223 151.243 194.859 149.972 195.707C145.028 198.815 140.109 202.018 135.212 205.315C132.599 207.082 130.128 208.989 127.585 210.897C127.162 211.179 126.526 211.533 127.02 212.239C127.232 212.239 127.515 212.239 127.727 212.169C134.506 210.12 141.427 209.201 148.489 208.707C152.726 208.424 156.893 208.212 161.13 207.859C175.254 206.658 188.883 203.69 201.736 197.332C216.637 189.913 229.207 179.951 237.47 165.185C238.6 163.136 239.659 161.016 240.507 158.826C241.425 156.565 242.272 154.234 241.99 150.913ZM11.9805 312.424C11.4155 315.391 10.8506 318.006 10.3562 320.69C9.29692 326.837 9.29689 333.054 10.4974 339.201C10.8505 341.109 11.4861 343.087 12.1923 344.924C13.2516 347.397 15.0878 349.092 17.7007 350.082C20.5961 351.141 23.5621 351.495 26.6694 351.424C30.4123 351.353 34.1551 351.071 37.898 351C40.9347 350.859 43.9713 350.717 47.008 350.859C52.5163 351.071 57.5303 352.837 62.1912 355.804C71.7956 361.951 79.4225 369.864 83.7303 380.603C83.8716 381.074 84.0599 381.498 84.2953 381.875C84.4365 382.016 84.6484 382.087 84.8603 382.228C84.9309 382.016 85.1427 381.804 85.1427 381.663C84.7896 375.87 83.7304 370.288 80.9762 365.06C77.9395 359.478 74.5497 354.109 69.677 349.94C66.3578 347.044 62.6856 344.429 59.0134 341.957C52.022 337.223 44.1126 334.044 36.4856 330.511C32.6721 328.674 28.8586 326.837 25.257 324.717C20.4549 321.891 16.2177 318.429 13.181 313.625C12.9692 313.272 12.616 312.989 11.9805 312.424ZM170.452 181.717C171.017 181.788 171.37 181.859 171.652 181.788C177.961 180.045 184.293 178.326 190.649 176.631C201.313 173.734 210.776 168.505 219.321 161.511C227.795 154.658 234.716 146.462 239.73 136.712C240.436 135.44 240.86 134.169 240.86 132.756C240.789 129.082 241.425 125.478 242.484 122.016C242.555 121.875 242.343 121.592 242.272 121.451C242.201 121.381 242.06 121.31 241.99 121.38C241.495 121.663 241.001 121.946 240.577 122.37C235.21 127.245 229.278 131.413 222.852 134.946C220.097 136.429 217.273 137.842 214.518 139.467C211.058 141.658 207.527 143.777 204.208 146.179C199.194 149.853 194.957 154.375 191.426 159.533C189.66 162.147 187.683 164.62 185.635 167.092C181.751 171.614 177.372 175.712 172.782 179.457C172.005 180.092 171.017 180.587 170.452 181.717ZM80.0581 264.098C80.2464 264.098 80.4583 264.121 80.6937 264.169C82.1767 261.131 83.5891 258.022 85.284 255.054C86.202 253.429 86.4139 251.875 86.0608 250.038C85.6371 248.201 85.4252 246.364 85.1427 244.527C83.0948 232.163 81.0468 219.728 79.2106 207.364C77.657 197.614 77.2333 187.794 79.0694 177.973C79.14 177.62 78.9282 177.196 78.8576 176.701C76.8096 178.679 75.1147 180.658 73.0667 182.141C70.9481 183.766 68.547 185.038 66.146 186.451C66.0753 187.016 65.8635 187.582 65.7929 188.147C65.0867 193.94 64.8748 199.804 65.581 205.669C66.6403 215.701 68.9001 225.522 72.1487 235.131C73.7023 239.652 75.2559 244.245 76.7389 248.766C78.222 253.288 79.2813 257.81 79.705 262.544C79.7756 263.038 79.9168 263.603 80.0581 264.098ZM211.694 80.4729C212.824 79.625 213.459 79.2011 214.095 78.7066C219.462 74.1142 223.911 68.674 227.866 62.8098C232.244 56.3805 235.493 49.386 237.682 41.8968C240.012 33.9131 243.19 26.2827 245.944 18.3696C246.651 16.3207 247.71 14.3424 248.557 12.2935C248.769 11.799 248.981 11.3044 249.122 10.8098C248.769 10.7392 248.628 10.6685 248.557 10.6685C248.134 10.9512 247.71 11.1631 247.357 11.4457C237.47 19.4294 228.925 28.6849 222.287 39.5653C219.603 44.0164 217.273 48.6088 215.79 53.5544C214.095 59.0653 213.035 64.7175 212.329 70.4403C211.976 73.549 211.482 76.6577 211.694 80.4729ZM187.4 52.0707C187.212 51.9765 187.047 51.9058 186.906 51.8587C186.129 53.1305 185.282 54.4023 184.576 55.674C181.61 60.9729 179.703 66.6251 178.29 72.4186C176.242 80.6142 175.607 88.8805 177.16 97.2174C178.079 102.375 179.067 107.603 180.197 112.761C181.539 119.19 182.739 125.62 183.446 132.19C184.011 137.937 183.987 143.659 183.375 149.359C182.669 155.435 181.115 161.37 178.644 167.022C178.149 168.223 177.372 169.353 177.302 171.332C179.773 169.283 181.398 167.163 183.234 165.256C185.494 162.995 186.765 160.381 187.612 157.342C190.225 148.37 191.284 139.255 190.72 129.859C190.155 121.946 189.307 113.962 188.036 106.12C186.953 99.3841 185.988 92.6486 185.141 85.9131C184.011 77.2229 184.293 68.6033 185.706 59.9837C186.129 57.299 186.835 54.6849 187.4 52.0707ZM80.4818 360.962C80.6701 360.868 80.8585 360.797 81.0468 360.75C80.9055 360.114 80.8349 359.478 80.6937 358.842C79.9168 355.734 78.9988 352.696 78.2926 349.587C77.7983 347.256 76.739 345.277 75.2559 343.37C71.9133 339.083 68.0056 335.386 63.533 332.277C57.6716 328.25 51.2452 325.071 44.96 321.609C39.0279 318.359 33.0958 315.038 27.7287 310.799C23.1384 307.196 19.1837 303.169 16.3589 298.011C16.0764 297.516 15.7233 297.092 15.0877 296.315C14.8759 297.587 14.7347 298.506 14.5934 299.424C14.0991 301.967 13.746 304.511 13.181 306.984C12.7573 308.75 12.9691 310.234 13.746 311.717C14.9465 314.049 16.5708 316.027 18.4775 317.794C21.9379 321.044 25.7513 323.728 29.9885 325.848C35.1203 328.391 40.3226 330.817 45.5956 333.125C51.6689 335.739 57.3185 338.989 62.7562 342.663C69.5357 347.256 75.4678 352.696 79.6344 359.832C79.9168 360.185 80.1993 360.538 80.4818 360.962ZM69.3239 309.527C67.3465 301.544 64.098 294.337 59.2252 287.908C56.3298 283.951 53.1519 280.136 50.1152 276.321C46.1605 271.304 42.1352 266.429 38.3217 261.413C34.367 256.185 30.9066 250.533 28.2937 244.457C22.8559 231.598 21.5142 218.457 26.2457 205.033C26.3869 204.679 26.8106 204.256 26.0338 203.761C25.6101 204.114 25.1158 204.397 24.7627 204.821C23.1384 206.516 21.5848 208.212 19.9605 209.908C18.195 211.815 17.4182 214.006 17.0651 216.549C16.4295 222.554 16.5708 228.489 17.7713 234.424C19.5368 242.761 22.9972 250.391 27.7993 257.527C31.6128 263.109 35.9206 268.408 40.5109 273.424C44.4656 277.734 48.491 281.973 52.4457 286.283C58.6602 292.924 63.9567 300.201 68.4764 308.044C68.7589 308.562 69.0414 309.056 69.3239 309.527ZM158.376 190.832C161.954 190.313 165.532 189.795 169.11 189.277C172.57 188.712 176.101 188.288 179.562 187.582C200.041 183.696 217.626 174.158 232.738 159.815C235.987 156.777 238.6 153.174 241.142 149.5C241.919 148.37 242.343 147.239 242.131 145.897C241.848 143.777 241.637 141.728 241.283 139.609C241.213 139.255 240.93 138.902 240.648 138.337C238.741 141.304 237.117 144.201 235.21 146.815C224.193 161.652 210.069 172.25 192.203 177.62C186.977 179.174 181.539 180.375 176.313 182C172.5 183.131 168.757 184.473 165.014 185.815C162.33 186.804 160.282 188.641 158.376 190.832ZM69.9594 318.783C70.1478 318.736 70.3361 318.665 70.5244 318.571C70.4538 318.006 70.3832 317.44 70.2419 316.875C69.2061 312.871 67.5819 309.127 65.3691 305.641C60.9907 298.67 56.0002 292.17 50.3977 286.141C44.4656 279.783 38.6748 273.353 32.9546 266.783C28.6468 261.837 24.9745 256.397 22.0085 250.462C16.9945 240.641 14.5934 230.256 15.4408 219.163C15.5114 218.386 15.5115 217.679 15.5821 216.408C14.8759 216.973 14.4522 217.256 14.2403 217.538C13.3222 218.951 12.5454 220.364 11.4861 221.707C10.2149 223.402 9.79122 225.239 10.0737 227.288C10.2856 228.348 10.2856 229.408 10.4974 230.467C11.8392 238.946 14.3815 247.071 18.3363 254.772C22.4322 262.614 27.5875 269.75 33.802 276.109C37.6861 280.136 41.7821 283.951 45.878 287.837C54.988 296.598 62.8268 306.348 69.0414 317.37C69.3239 317.864 69.677 318.359 69.9594 318.783ZM255.125 72.4185C255.078 73.1251 255.007 73.808 254.913 74.4674C254.066 86.4783 249.546 96.9349 241.495 105.837C236.693 111.065 231.185 115.375 225.111 118.978C221.369 121.239 217.626 123.359 213.883 125.549C211.058 127.245 208.375 129.152 206.044 131.484C204.561 132.826 203.36 134.38 202.796 136.429C202.584 137.277 202.16 138.125 201.877 139.044C201.807 139.397 201.807 139.821 201.807 140.669C208.304 136.783 214.448 133.179 220.521 129.435C223.699 127.457 226.736 125.266 229.702 123.005C236.693 117.777 242.766 111.63 247.992 104.636C251.735 99.6196 254.984 94.3914 257.314 88.5979C257.808 87.3968 258.303 86.1251 258.303 84.8533C258.303 80.4729 257.314 76.3044 255.125 72.4185ZM87.685 249.826C89.1681 248.837 89.2387 247.848 89.1681 246.788C89.1681 242.902 89.2387 239.016 88.8856 235.201C88.3912 228.984 87.6144 222.837 86.8376 216.62C85.4252 205.315 84.3659 194.011 84.5778 182.636C84.719 171.614 86.202 160.875 89.8036 150.489C90.5805 148.299 91.4279 146.109 92.4872 143.212C91.4279 144.554 90.7217 145.19 90.3686 146.038C89.168 148.582 87.9675 151.125 87.0495 153.81C85.7783 157.696 84.7896 161.723 83.5185 165.538C81.4705 171.473 80.4112 177.62 79.705 183.766C78.7869 191.679 79.4225 199.522 80.6231 207.294C82.671 220.576 84.8603 233.929 86.9788 247.212C87.1201 247.989 87.4026 248.766 87.685 249.826ZM211.27 87.2555C212.682 86.4784 213.53 86.0544 214.307 85.5598C223.346 79.4838 231.185 72.2066 237.682 63.4457C240.577 59.4892 243.049 55.2501 244.673 50.5164C245.167 49.0327 245.238 47.6903 244.744 46.1359C243.402 42.3914 242.625 38.4348 242.696 34.4077C242.696 34.0544 242.413 33.6305 242.131 32.6414C241.213 35.6088 240.507 37.9403 239.73 40.2718C237.47 46.9131 235.139 53.5544 231.538 59.6305C226.383 68.1794 220.168 75.9512 212.188 82.0979C211.906 82.3098 211.694 82.5924 211.341 82.9457C211.341 84.1468 211.341 85.3479 211.27 87.2555ZM168.404 178.538C170.734 177.266 171.935 175.783 172.994 174.299C176.807 169.071 178.997 163.207 180.55 156.989C182.669 148.511 182.951 139.821 181.821 131.131C181.115 125.549 180.056 120.038 179.067 114.527C177.867 108.027 176.596 101.598 175.324 95.1686C175.254 94.674 175.113 94.1088 174.83 93.1196C173.771 94.674 173.63 96.087 172.923 97.2881C171.582 99.761 171.44 102.446 171.935 105.131C172.547 108.616 173.253 112.054 174.053 115.446C175.113 120.391 176.525 125.266 177.443 130.212C180.197 144.625 177.867 158.402 171.793 171.685C170.875 173.804 169.745 175.853 168.404 178.538ZM197.852 149.217C198.417 148.935 198.77 148.794 198.982 148.582C203.996 144.131 209.575 140.527 215.507 137.277C218.473 135.723 221.439 134.098 224.405 132.402C231.255 128.446 237.541 123.712 242.908 117.919C244.038 116.788 244.956 115.375 245.803 114.033C248.134 110.217 250.464 106.402 252.583 102.516C253.854 100.255 255.478 98.2066 255.972 95.4511C255.69 95.7338 255.478 95.8751 255.337 96.087C250.252 104.848 243.967 112.69 236.34 119.402C229.631 125.337 222.287 130.283 214.589 134.804C211.341 136.688 208.092 138.573 204.844 140.457C201.666 142.364 198.982 144.696 197.923 148.44C197.852 148.582 197.923 148.652 197.852 149.217Z" fill="#E8C597"/>
</svg>
