<svg width="265" height="314" viewBox="0 0 265 314" fill="none" xmlns="http://www.w3.org/2000/svg">
<g clip-path="url(#clip0_2_249)">
<path fill-rule="evenodd" clip-rule="evenodd" d="M91.4463 301.792C92.2953 301.306 93.023 301.003 93.69 300.638C97.0859 298.999 100.36 297.116 103.029 294.443C105.818 291.65 108.426 288.674 111.094 285.758C112.367 284.422 113.52 282.964 114.793 281.628C117.886 278.227 121.645 275.676 125.83 273.733C126.84 273.247 127.871 272.801 128.922 272.397C132.864 270.817 136.563 268.813 140.141 266.627C142.809 264.987 145.598 263.408 148.388 262.011C153.603 259.399 159.061 258.853 164.761 260.007C171.431 261.343 177.799 263.59 183.681 266.991C187.744 269.421 191.685 271.971 195.748 274.522C196.233 274.826 196.779 275.13 197.264 275.555C198.295 276.405 199.326 276.527 200.6 275.919C203.692 274.522 206.967 273.915 210.302 273.733C210.848 273.672 211.333 273.611 211.879 273.551C211.939 273.551 212 273.49 212.061 273.429C211.394 272.457 211.394 272.457 210.484 272.032C207.937 270.817 205.33 269.724 202.904 268.327C199.205 266.08 195.566 263.59 191.928 261.1C190.897 260.371 190.048 259.278 189.139 258.367C188.047 257.213 187.016 256.059 185.803 254.966C181.862 251.382 177.132 249.803 171.856 250.046C168.339 250.168 164.882 250.957 161.486 251.868C154.25 253.852 146.973 253.933 139.656 252.111C138.079 251.686 136.442 251.261 134.865 250.836C129.771 249.378 125.041 247.131 120.069 245.309C119.887 245.248 119.705 245.005 119.341 244.762C119.705 244.58 119.947 244.337 120.251 244.276C122.919 243.608 125.344 242.454 127.649 240.936C128.013 240.693 128.377 240.45 128.74 240.207C134.501 236.563 140.626 235.834 147.115 237.595C151.844 238.871 156.15 240.997 160.274 243.487C162.457 244.823 164.64 246.139 166.823 247.434C167.49 247.86 168.217 248.163 169.066 247.981C174.463 247.07 179.497 248.224 184.227 250.775C184.287 250.836 184.409 250.775 184.651 250.775C184.59 250.411 184.59 250.107 184.409 249.803C180.649 243.426 178.041 236.563 175.858 229.518C174.403 225.023 172.766 220.529 171.189 216.095C170.704 214.516 169.794 213.241 168.642 212.147C160.698 204.495 151.359 200.365 140.141 201.033C136.927 201.215 133.713 201.701 130.56 202.491C127.164 203.28 123.768 204.252 120.372 204.981C117.037 205.71 113.641 206.438 110.306 206.864C107.88 207.228 105.394 207.228 102.968 207.167C97.3083 207.086 92.1134 205.446 87.3834 202.248C84.5939 200.426 81.8651 198.604 79.015 196.842C75.0733 194.534 70.8285 193.198 66.3411 192.773C64.3399 192.53 62.3388 192.409 60.3376 192.226C56.2747 191.801 52.3937 190.951 48.6946 189.25C45.8445 187.914 43.2976 186.214 40.9932 184.209C38.1431 181.719 35.4143 179.168 32.6248 176.617C29.5321 173.824 26.1969 171.455 22.6797 169.269C16.555 165.442 10.0058 162.588 3.15344 160.28C2.36511 160.037 1.51614 159.672 0.727807 159.369C0.667166 159.369 0.606504 159.247 0.485223 159.065C1.27355 159.004 1.94058 158.883 2.60763 158.883C6.36735 158.822 10.1271 158.701 13.9475 158.701C21.2243 158.701 28.1374 157.182 34.6866 153.781C37.8399 152.081 41.1145 150.562 44.4497 149.226C52.333 146.007 60.5802 145.46 68.9486 146.857C71.5562 147.282 74.0424 148.315 76.4074 149.408C77.7415 150.076 79.0756 150.684 80.4704 151.291C84.2301 152.992 88.1717 154.085 92.2953 154.692C95.5699 155.117 98.8445 155.725 102.119 156.393C105.939 157.122 109.517 158.518 112.974 160.219C117.401 162.466 121.1 165.685 124.556 169.208C131.045 175.706 136.017 183.359 140.262 191.498C141.536 193.805 142.688 196.174 143.961 198.604C148.085 199.089 152.269 199.515 156.211 201.154C160.031 202.794 163.548 204.981 167.247 207.592C167.247 206.317 166.762 205.649 166.459 204.981C162.153 195.992 156.696 187.732 149.965 180.383C146.751 176.8 143.415 173.338 140.323 169.633C138.079 166.961 136.017 164.045 134.137 161.13C129.953 154.692 124.192 150.319 117.219 147.525C113.277 145.946 109.214 144.975 104.969 144.61C101.755 144.367 98.5413 144.003 95.2667 143.699C94.1752 143.638 93.023 143.456 91.8708 143.395C86.4738 142.849 81.7438 140.662 77.6809 137.14C73.0722 133.253 68.5848 129.183 64.0367 125.175C62.5005 123.839 60.9845 122.503 59.4887 121.166C59.2461 120.984 59.0642 120.681 58.7003 120.255C59.1855 120.073 59.4887 119.891 59.7312 119.891C64.2186 119.527 68.7061 119.587 73.0722 120.62C76.4074 121.409 79.8033 121.834 83.1992 122.077C85.2003 122.26 87.2015 122.563 89.2026 122.867C93.9326 123.657 97.8742 125.964 101.452 129.123C106.061 133.253 109.881 137.99 112.853 143.638C118.856 145.4 124.617 147.829 129.65 152.445C129.589 151.777 129.65 151.412 129.589 151.109C128.255 147.465 126.982 143.821 125.526 140.298C123.647 135.804 120.675 132.159 116.915 129.123C114.328 127.058 111.68 125.053 108.972 123.11C103.938 119.405 98.9658 115.7 94.4784 111.327C88.6568 105.74 83.8056 99.5447 80.4704 92.1351C76.8926 84.4217 75.8617 76.4047 77.5596 68.0233C78.7118 62.1927 80.4704 56.6051 82.3502 51.0782C84.3514 45.0654 86.4132 39.1134 88.293 33.1006C90.7793 24.9014 91.9921 16.52 92.2953 7.95633C92.4166 5.40546 92.5985 2.91533 92.7198 0.42519C93.4475 0.121515 93.6294 0.607395 93.8719 0.850335C99.2083 7.04531 103.453 13.8476 106.546 21.3788C107.941 24.7799 109.396 28.1811 110.669 31.643C113.034 38.3238 116.915 43.9115 122.07 48.7703C124.617 51.1389 127.103 53.6291 129.407 56.3014C135.29 63.1645 139.049 71.06 139.838 80.231C140.383 86.3652 138.928 92.0743 136.017 97.419C133.834 101.367 131.348 105.072 128.619 108.655C126.497 111.51 124.496 114.486 122.858 117.704C121.827 119.648 120.978 121.713 120.615 123.839C120.372 125.053 120.372 126.268 120.311 127.544C120.271 128.515 120.615 129.366 121.342 130.094C124.981 133.617 127.224 137.929 128.983 142.545C129.65 144.367 130.378 146.128 130.923 148.011C133.531 156.757 138.322 164.228 144.446 170.908C147.6 174.431 150.814 177.893 153.967 181.476C161.547 190.222 167.187 200.183 171.613 210.872C174.1 216.763 176.222 222.837 178.102 228.971C179.679 234.134 181.498 239.296 183.984 244.155C186.895 249.985 190.473 255.33 195.203 259.946C198.174 262.8 201.57 265.169 205.269 266.991C209.635 269.178 214.183 271.121 218.671 273.125C218.913 273.247 219.277 273.308 219.883 273.551C219.641 273.004 219.641 272.64 219.459 272.457C215.153 268.145 212.667 262.922 210.969 257.213C210.12 254.419 209.211 251.686 208.362 248.892C206.603 243.426 203.996 238.385 200.418 233.83C196.355 228.728 192.171 223.626 188.047 218.464C185.803 215.67 183.62 212.816 181.862 209.657C180.467 207.167 179.133 204.556 178.041 201.883C174.645 193.502 174.403 184.999 177.738 176.496C179.375 172.305 181.195 168.236 182.953 164.106C183.984 161.616 185.076 159.126 186.046 156.575C187.865 151.777 188.835 146.797 188.896 141.695C188.896 139.508 188.835 137.322 188.835 135.135C188.835 132.099 188.835 129.123 188.957 126.147C189.078 119.587 191.2 113.635 194.354 107.926C196.901 103.432 199.447 98.9374 201.631 94.2608C203.086 91.1633 204.602 88.0658 206.482 85.2113C206.906 84.4825 207.452 83.8144 207.937 83.1463C208.24 83.3285 208.483 83.3892 208.483 83.5107C209.211 88.6732 211.454 93.2283 214.244 97.5405C215.881 100.031 217.7 102.399 219.398 104.829C221.521 107.926 223.764 110.963 225.705 114.182C230.556 122.199 232.861 130.945 232.497 140.298C232.254 145.46 230.92 150.319 229.101 155.117C228.009 157.911 227.039 160.705 226.433 163.62C225.584 167.629 225.462 171.637 226.493 175.646C227.342 178.966 228.191 182.286 229.04 185.606C231.223 193.805 230.314 201.762 226.554 209.354C225.462 211.601 224.31 213.787 222.976 215.792C219.034 221.622 214.971 227.331 211.03 233.101C210.06 234.498 209.089 235.834 208.24 237.292C207.331 238.81 207.209 240.207 208.058 241.968C209.453 245.187 210.545 248.528 211.697 251.807C212.425 253.872 213.031 255.998 213.637 258.124C215.396 264.076 218.913 268.935 223.401 273.186C226.19 275.737 229.161 277.984 232.557 279.685C234.377 280.535 236.014 281.689 237.712 282.661C238.258 282.357 238.076 281.993 237.894 281.689C237.772 281.385 237.59 281.082 237.409 280.778C235.286 276.709 234.013 272.336 233.831 267.72C233.649 263.711 233.346 259.824 232.436 255.937C231.769 253.144 231.041 250.35 230.253 247.556C229.586 245.005 228.858 242.454 228.191 239.903C226.918 234.862 226.554 229.7 226.857 224.477C226.918 222.898 227.221 221.379 227.706 219.861C228.252 218.039 228.737 216.156 229.283 214.334C229.404 213.848 229.768 213.423 230.071 212.876C230.496 213.362 230.738 213.666 230.981 214.03C232.436 216.277 234.255 218.16 236.196 219.982C240.441 223.869 243.109 228.789 244.564 234.316C245.959 239.782 246.201 245.369 245.231 251.018C244.504 254.966 243.655 258.913 242.381 262.74C241.714 264.926 241.108 267.113 240.501 269.299C239.41 273.186 239.652 276.952 241.229 280.657C242.988 284.908 245.474 288.674 248.809 291.832C254.388 297.237 259.3 303.129 263.423 309.749C263.969 310.538 264.394 311.388 264.818 312.239C265 312.725 264.818 313.21 264.394 313.393C264.151 313.514 263.666 313.453 263.423 313.271C263.06 312.968 262.696 312.482 262.453 312.057C258.047 305.376 252.993 299.221 247.293 293.593C240.926 287.277 233.709 282.357 225.523 278.652C224.31 278.166 223.097 277.681 221.945 277.073C220.55 276.344 219.156 276.041 217.64 276.041C215.578 276.041 213.577 275.98 211.576 275.98C206.057 276.041 201.085 277.681 196.476 280.717C194.475 282.114 192.534 283.572 190.473 284.969C187.623 286.791 184.772 288.674 181.801 290.374C177.253 293.046 172.22 294.14 166.944 294.018C164.64 293.958 162.396 293.775 160.092 293.654C157.302 293.472 154.513 293.289 151.723 293.107C146.508 292.743 141.414 293.532 136.502 295.415C132.379 296.934 128.316 298.513 124.192 299.97C119.523 301.732 114.672 303.068 109.699 303.675C106.121 304.1 102.544 304.161 98.9658 303.554C97.0859 303.25 95.206 302.886 93.2655 302.582C92.6591 302.46 92.1134 302.278 91.4463 301.792ZM236.135 262.861C236.135 262.821 236.155 262.76 236.196 262.679C236.196 262.679 236.176 262.659 236.135 262.618C236.135 262.659 236.135 262.699 236.135 262.74C236.135 262.78 236.135 262.821 236.135 262.861ZM236.499 262.072C237.287 256.605 237.469 251.079 237.045 245.552C236.984 244.701 236.62 244.033 235.953 243.547C234.073 242.09 232.436 240.389 231.041 238.506C230.92 238.264 230.617 238.142 230.253 237.899C230.374 238.567 230.374 239.114 230.496 239.539C230.981 241.604 231.526 243.669 232.133 245.673C233.709 250.896 235.044 256.12 235.711 261.586C235.771 261.95 236.014 262.315 236.135 262.618C236.317 262.436 236.499 262.254 236.499 262.072ZM236.014 263.286C236.095 263.286 236.176 263.266 236.256 263.226C236.216 263.104 236.176 262.983 236.135 262.861C236.095 262.983 236.054 263.124 236.014 263.286ZM193.808 115.7C192.413 117.887 191.928 119.709 191.504 122.988C191.079 126.815 191.018 130.641 191.079 134.528C191.119 137.929 191.099 141.351 191.018 144.792C190.958 145.946 191.079 146.979 191.685 148.011C194.96 153.72 196.84 159.915 197.931 166.353C198.538 169.511 199.266 172.67 199.993 175.828C200.6 178.5 201.631 181.051 203.147 183.298C203.389 183.602 203.753 183.784 204.177 184.149C204.905 181.841 205.451 179.715 206.179 177.65C207.695 173.277 209.211 168.904 210.848 164.531C211.333 163.256 211.454 161.98 211.212 160.705C210.969 159.551 210.787 158.397 210.423 157.364C209.393 154.631 208.422 151.898 207.149 149.347C205.572 146.068 203.632 142.91 201.812 139.691C199.993 136.532 198.053 133.374 196.658 129.973C194.899 125.782 193.808 121.47 193.869 116.915C193.869 116.49 193.808 116.125 193.808 115.7ZM184.772 165.807C184.105 167.325 183.62 168.297 183.135 169.329C181.558 172.852 180.103 176.435 178.951 180.14C177.253 185.849 177.253 191.498 178.89 197.207C179.941 200.851 181.417 204.313 183.317 207.592C185.136 210.811 187.259 213.848 189.563 216.703C194.717 223.14 200.175 229.335 204.905 236.077C204.966 236.077 205.208 236.016 205.512 235.956C203.996 227.27 201.57 218.707 201.206 209.961C201.085 209.718 201.024 209.657 200.963 209.597C200.438 209.151 199.892 208.706 199.326 208.26C193.444 203.645 189.442 197.693 187.623 190.344C186.592 186.153 185.925 181.962 185.864 177.589C185.803 175.16 185.803 172.73 185.743 170.24C185.682 168.965 185.621 167.629 184.772 165.807ZM203.692 186.031C200.054 180.383 199.629 179.351 198.113 172.427C197.446 169.451 196.901 166.414 196.294 163.438C195.385 158.822 193.869 154.449 191.746 150.319C191.504 149.894 191.2 149.469 190.715 148.74C190.473 149.53 190.351 149.894 190.291 150.319C189.603 153.599 188.593 156.757 187.259 159.794C186.774 160.948 186.41 162.102 185.864 163.195C185.5 163.985 185.5 164.713 185.803 165.503C186.531 167.143 186.713 168.843 186.774 170.605C186.814 172.994 186.854 175.362 186.895 177.711C186.955 181.962 187.623 186.092 188.653 190.161C190.351 197.085 194.05 202.673 199.508 207.106C199.872 207.41 200.236 207.896 201.024 207.653C201.267 205.892 201.085 204.07 201.267 202.248C201.388 200.426 201.509 198.604 201.752 196.781C201.994 194.959 202.298 193.137 202.601 191.315C202.965 189.493 203.328 187.732 203.692 186.031ZM106.97 92.1958C107.941 90.7382 108.608 89.7057 109.335 88.7339C111.579 85.7579 114.49 83.5107 117.401 81.2635C119.341 79.8058 121.282 78.2875 123.101 76.6476C124.617 75.3115 126.072 73.9146 126.982 72.0925C128.74 68.5699 129.407 64.8043 129.286 60.9173C129.286 59.9455 128.983 59.2167 128.316 58.5486C126.618 56.7873 124.981 54.9652 123.283 53.2039C122.676 52.5966 122.07 51.9892 121.342 51.3819C120.978 51.6855 120.675 51.9285 120.493 52.1714C119.159 54.1149 117.461 55.7548 115.642 57.2732C114.672 58.1639 113.701 59.0547 112.731 59.9455C109.76 62.8608 107.88 66.3227 107.577 70.5741C107.455 72.0318 107.395 73.5501 107.213 75.0078C106.91 78.3482 106.485 81.6279 104.848 84.6039C104.605 85.0291 104.484 85.6971 104.605 86.1223C105.151 88.0051 105.758 89.8879 106.97 92.1958ZM119.159 183.177C116.552 181.841 114.308 180.504 111.943 179.351C109.093 178.014 106.182 176.739 103.332 175.403C101.816 174.735 100.3 174.674 98.7839 175.221C97.4498 175.646 96.1157 176.071 94.8422 176.739C93.0836 177.589 91.2644 178.561 89.6271 179.715C87.3834 181.233 85.2003 182.873 83.0779 184.574C79.8639 187.003 76.65 189.433 72.769 190.708C72.5264 190.769 72.3445 190.951 71.92 191.255C72.5264 191.498 73.0115 191.74 73.436 191.923C74.8308 192.469 76.2861 192.894 77.6202 193.563C79.1362 194.291 80.7129 194.777 82.4108 194.777C84.2907 194.777 86.2312 194.717 88.1111 194.474C91.325 194.048 94.2358 192.894 97.0859 191.498C99.5722 190.283 102.058 188.947 104.605 187.732C108.971 185.667 113.459 184.027 118.371 183.663C118.492 183.663 118.613 183.481 119.159 183.177ZM107.637 99.2411C107.819 99.1196 107.941 98.9981 107.88 98.9374C107.759 98.4515 107.637 97.9656 107.455 97.4797C104.545 90.4345 101.937 83.2677 99.9967 75.8581C99.6935 74.7041 99.0264 74.0968 97.9955 73.6716C95.8125 72.7606 93.9326 71.3637 92.174 69.7238C90.8399 68.3877 89.3845 67.1122 87.9898 65.7761C86.4738 64.3792 84.8365 63.2859 82.9566 62.4964C82.5321 62.3142 82.047 62.2534 81.5619 62.132C80.531 64.6828 79.1969 70.5741 79.2575 73.0035C79.2575 73.5501 79.3788 74.2182 79.5608 74.7648C81.5619 80.4132 85.1397 84.8469 90.2335 87.9443C92.2953 89.159 94.3571 90.313 96.4189 91.467C99.8147 93.3498 103.15 95.4755 106.061 98.1478C106.546 98.6337 107.152 98.9374 107.637 99.2411ZM96.237 7.47045C96.0752 7.51094 95.9135 7.57168 95.7518 7.65266C95.8731 8.13854 95.9944 8.62442 96.1157 9.1103C98.9051 17.8561 100.057 26.7234 98.9658 35.8944C98.5413 39.1741 98.3594 42.5146 98.1168 45.855C97.2072 57.2124 98.9051 68.2662 102.301 79.077C102.422 79.4414 102.604 79.8058 103.029 80.7169C103.211 79.6236 103.332 79.1378 103.332 78.7126C103.211 76.7084 103.089 74.6434 102.907 72.6391C102.726 70.0275 102.422 67.4159 102.301 64.8043C102.24 61.5246 102.968 58.3664 104.302 55.3296C105.151 53.3456 106.061 51.3616 107.031 49.3776C108.547 46.1587 109.76 42.9397 110.124 39.3563C110.245 38.0809 110.306 36.8055 109.76 35.53C107.941 31.1571 106.243 26.7234 104.423 22.3505C102.907 18.585 101.088 15.0016 98.9658 11.5397C98.1168 10.1428 97.1466 8.80662 96.237 7.47045ZM14.9177 161.251C15.9486 161.798 16.9189 161.859 17.8285 162.041C23.5893 163.074 29.2289 164.653 34.626 167.021C37.9006 168.479 41.1752 170.119 44.3891 171.576C52.2724 175.221 60.4589 175.524 68.8273 173.884C69.0699 173.824 69.3125 173.702 69.555 173.52C69.6157 172.487 69.0092 171.698 68.4635 170.908C65.7346 166.839 61.793 164.531 57.1843 163.316C55.0012 162.77 52.6969 162.588 50.4532 162.284C47.6637 161.92 44.8742 161.737 42.1454 161.312C39.5379 160.948 37.2335 159.915 35.1717 158.397C34.5653 157.911 33.8983 157.486 33.4738 157.243C30.2598 158.215 27.4097 159.247 24.4383 159.915C21.3456 160.583 18.253 160.826 14.9177 161.251ZM108.85 97.2975C109.457 98.9374 110.063 100.516 110.669 102.096C111.336 103.675 111.64 105.436 112.61 106.954C113.095 106.954 113.52 107.076 113.944 107.015C114.732 106.954 115.521 106.894 116.248 106.711C122.07 105.254 127.285 102.824 131.651 98.6337C133.349 97.0141 134.643 95.1516 135.532 93.0461C137.412 88.7946 138.018 84.3002 137.473 79.6844C137.412 79.2592 137.412 78.8341 136.806 78.7126C136.442 79.2592 136.017 79.8666 135.653 80.4132C134.016 83.0855 131.772 85.1505 129.104 86.7296C127.709 87.4585 126.254 88.1873 124.799 88.7339C122.373 89.7057 119.887 90.5559 117.461 91.467C115.945 92.0136 114.49 92.5602 113.095 93.289C111.397 94.1393 109.76 95.2325 108.85 97.2975ZM214.971 149.59C215.093 148.74 215.214 148.133 215.275 147.586C215.881 142.241 215.578 137.018 214.244 131.916C213.455 128.637 212.364 125.479 211.394 122.32C210.12 118.19 208.725 114.121 207.513 109.991C205.997 104.768 205.026 99.4233 205.148 93.9571C205.208 93.6534 205.026 93.3498 204.905 92.8032C203.632 95.4755 202.419 97.9049 201.327 100.395C200.903 101.306 200.478 102.339 200.236 103.31C199.205 108.108 199.387 112.906 200.175 117.705C201.327 124.568 204.117 130.763 207.937 136.532C210.545 140.48 213.031 144.549 214.426 149.105C214.486 149.165 214.547 149.226 214.971 149.59ZM227.524 190.465C227.1 191.072 226.857 191.315 226.736 191.558C225.523 194.291 223.764 196.721 222.066 199.15C217.458 205.71 211.636 210.933 204.723 214.881C204.177 215.184 203.692 215.488 203.207 215.731C203.389 219.011 204.844 226.845 206.482 233.708C206.542 233.891 206.724 234.073 206.846 234.376C207.149 234.134 207.331 234.073 207.513 233.891C212.485 227.513 216.973 220.833 221.339 214.091C222.976 211.601 224.31 208.928 225.462 206.195C227.403 201.822 228.131 197.146 227.827 192.348C227.767 191.862 227.645 191.376 227.524 190.465ZM78.2266 171.819C80.8342 171.516 83.4417 171.212 86.0493 171.03C88.6568 170.848 91.325 170.969 93.8719 171.455C96.4189 172.002 98.9051 172.609 101.573 173.156C101.452 172.791 101.452 172.487 101.331 172.305C99.7541 169.694 98.1774 167.021 96.6008 164.47C95.6912 163.013 94.8422 161.555 93.8113 160.28C92.2347 158.397 90.2942 156.818 87.8685 156.271C83.8056 155.299 80.0459 153.72 76.3468 151.898C74.2244 150.927 72.0413 149.894 69.7369 149.408C69.3731 149.347 69.0093 149.469 68.5848 149.53C68.8273 149.833 68.888 150.016 69.0092 150.137C69.1305 150.258 69.3125 150.319 69.4337 150.441C71.8594 152.627 73.4158 155.32 74.1031 158.518C74.4063 160.037 74.6488 161.616 74.952 163.134C75.2553 164.774 75.5584 166.414 75.9829 167.993C76.4074 169.451 76.9532 170.848 78.2266 171.819ZM209.574 172.366C209.211 173.095 208.907 173.641 208.725 174.188C208.119 175.889 207.573 177.528 207.088 179.229C205.451 184.513 204.056 189.797 203.268 195.324C203.207 195.87 202.843 196.539 203.571 196.964C211.09 195.081 220.793 187.307 224.977 179.654C224.553 177.407 223.946 175.099 223.643 172.791C223.401 170.362 223.522 167.932 223.461 165.321C223.037 165.624 222.673 165.807 222.37 166.11C221.521 166.9 220.793 167.75 219.944 168.479C217.094 171.151 213.941 173.095 209.574 172.366ZM183.074 278.166C178.466 277.195 174.342 276.527 170.279 275.555C167.55 274.947 165.064 275.19 162.517 276.041C157.727 277.62 153.239 279.746 149.298 282.904C146.084 285.515 143.112 288.309 140.02 290.982C139.838 291.164 139.838 291.407 139.656 291.832C140.323 291.771 140.869 291.71 141.354 291.589C144.143 290.921 147.054 290.678 149.965 290.739C151.663 290.799 153.421 290.921 155.18 290.982C156.393 290.982 157.666 290.921 158.818 290.739C162.153 290.313 165.307 289.159 168.157 287.337C169.915 286.244 171.674 285.09 173.372 283.875C176.101 281.932 178.89 280.11 181.983 278.834C182.225 278.774 182.407 278.592 183.074 278.166ZM226.675 121.531C225.584 121.956 225.098 122.746 224.735 123.535C224.25 124.568 223.825 125.6 223.461 126.693C222.794 128.455 222.248 130.337 221.521 132.099C220.793 133.921 219.762 135.5 218.185 136.715C217.7 137.079 217.276 137.504 216.791 137.929C216.791 138.415 216.73 138.84 216.791 139.265C217.215 145.278 216.488 151.169 214.729 156.879C213.637 160.401 212.364 163.863 211.212 167.325C211.03 167.993 210.848 168.6 210.605 169.572C211.272 169.208 211.697 169.026 212 168.783C214.426 166.839 216.488 164.592 217.882 161.798C219.277 159.004 220.55 156.089 221.824 153.234C223.764 148.74 225.766 144.246 229.525 140.845C230.253 140.298 230.192 139.508 230.192 138.719C230.314 133.01 229.161 127.544 227.16 122.26C227.039 122.077 226.857 121.834 226.675 121.531ZM83.0172 195.992C82.9768 196.154 82.9364 196.316 82.896 196.478C84.0482 197.267 85.261 198.057 86.3525 198.846C87.5047 199.757 88.7781 200.243 90.1729 200.486C94.0539 201.337 97.8742 201.033 101.573 199.697C103.938 198.786 106.243 197.693 108.547 196.66C110.73 195.688 112.792 194.595 115.036 193.684C120.311 191.558 125.769 190.526 131.469 191.862C131.651 191.923 131.894 191.74 132.379 191.558C129.529 189.433 126.8 187.611 123.95 185.91C122.555 185.06 121.1 184.695 119.462 184.695C116.976 184.695 114.611 185.181 112.246 185.91C108.79 186.942 105.515 188.461 102.301 190.04C99.8147 191.315 97.2678 192.53 94.7209 193.684C91.4463 195.081 88.0504 195.81 84.4726 195.87C83.9875 195.87 83.5024 195.931 83.0172 195.992ZM203.207 214.334C203.753 214.152 204.056 214.03 204.359 213.848C205.208 213.362 206.037 212.876 206.846 212.39C215.639 206.681 222.066 198.846 226.736 189.493C227.16 188.704 227.282 187.853 227.039 187.003C226.615 185.485 226.251 183.906 225.826 182.387C225.766 182.144 225.523 181.901 225.159 181.416C222.43 185.606 219.277 189.068 215.396 191.862C211.576 194.595 207.573 197.085 203.086 198.361C202.237 202.491 202.298 211.054 203.207 214.334ZM95.0848 10.3857C94.9231 10.4262 94.7614 10.4667 94.5997 10.5072C94.4784 11.3575 94.3571 12.2078 94.2964 13.0581C93.8113 19.3745 92.7804 25.5695 91.0825 31.643C89.991 35.53 88.7781 39.3563 87.5047 43.1826C87.2015 44.2151 87.2015 45.0047 87.8079 45.855C88.8388 47.4341 89.3239 49.1954 89.7484 51.0175C90.0516 52.4144 90.2942 53.7505 90.658 55.0867C91.6283 58.5486 93.3262 61.5853 96.1157 63.8933C96.4189 64.1362 96.6614 64.5614 97.3285 64.2577C97.2678 63.7111 97.2678 63.1037 97.2072 62.4964C96.6614 58.3057 96.4189 54.1149 96.6614 49.9242C96.904 45.0047 97.1466 40.1459 97.6923 35.2871C98.5413 27.5737 97.6923 20.0426 95.8125 12.6329C95.5699 11.8434 95.3273 11.1146 95.0848 10.3857ZM44.6317 151.777C45.6019 152.809 46.3296 153.599 47.0573 154.267C49.301 156.271 51.9086 157.364 54.6981 158.215C57.4269 159.004 60.0951 159.794 62.7026 160.826C67.5539 162.709 71.1317 166.05 73.0115 171.03C73.2541 171.576 73.4967 172.123 73.7392 172.67C74.8308 172.791 75.7404 172.548 76.5893 172.123C74.6488 167.507 74.6488 167.507 73.6786 161.98C73.436 160.523 73.1328 159.065 72.769 157.607C72.1626 155.299 70.8891 153.295 69.1305 151.595C67.4326 149.955 65.4314 148.619 62.9452 148.497C57.3056 148.315 51.7266 148.922 46.3903 150.866C45.9658 151.048 45.5413 151.352 44.6317 151.777ZM97.9955 174.006C97.8136 173.824 97.753 173.641 97.571 173.641C93.872 172.609 90.0516 172.123 86.1706 172.366C83.745 172.487 81.5012 173.156 79.4395 174.37C77.6202 175.464 75.9223 176.678 74.2244 177.954C72.4658 179.229 70.7678 180.626 69.0699 181.962C65.6134 184.695 61.6717 186.335 57.3662 187.003C55.9715 187.246 54.5768 187.368 53.182 187.55C52.8182 187.55 52.4543 187.732 51.666 187.914C54.5161 189.007 57.0024 189.493 59.4887 189.797C62.0356 190.101 64.5218 190.222 67.0687 190.526C68.3422 190.708 69.4944 190.587 70.7072 190.222C73.5371 189.493 76.1446 188.279 78.5298 186.578C80.4097 185.303 82.1683 183.845 83.9875 182.448C88.1111 179.229 92.4166 176.253 97.4498 174.492C97.6317 174.37 97.8136 174.188 97.9955 174.006ZM83.0779 91.7707C83.2598 93.1068 83.9269 94.0178 84.4726 94.9896C88.3536 101.974 93.69 107.744 99.6328 112.967C104.605 117.279 110.124 120.923 115.339 124.871C115.581 125.053 115.885 125.114 116.309 125.236C116.309 124.75 116.309 124.507 116.248 124.264C114.793 120.255 113.58 116.125 112.489 111.935C112.307 111.145 111.822 110.356 111.336 109.627C109.335 106.529 106.485 104.404 103.15 102.885C100.906 101.853 98.6019 101.002 96.2976 100.152C91.5676 98.3908 87.2621 96.0221 83.8056 92.1958C83.6843 92.0136 83.4418 91.9529 83.0779 91.7707ZM92.2953 202.126C92.9623 202.551 93.2655 202.855 93.6294 203.037C96.055 203.948 98.6019 204.556 101.27 204.799C105.232 205.163 109.153 204.96 113.034 204.191C116.552 203.523 120.069 202.673 123.525 201.822C128.74 200.547 133.895 199.089 139.231 198.786C139.534 198.725 139.838 198.543 140.444 198.361C139.292 197.328 138.322 196.417 137.412 195.567C136.988 195.202 136.563 194.899 136.139 194.595C135.936 194.474 135.714 194.352 135.471 194.231C131.712 192.773 127.952 191.923 123.889 192.469C120.675 192.894 117.522 193.684 114.55 195.02C112.792 195.81 111.094 196.66 109.335 197.45C107.334 198.421 105.394 199.332 103.332 200.183C100.3 201.397 97.1465 202.126 93.8719 202.005C93.4475 202.005 93.023 202.065 92.2953 202.126ZM130.499 61.8283C130.378 62.5571 130.317 62.9215 130.256 63.3467C130.074 64.8043 129.953 66.3227 129.65 67.7803C128.922 70.9993 127.528 73.8538 125.102 76.2225C122.979 78.2875 120.615 80.1095 118.31 81.9316C116.188 83.6322 114.065 85.3327 112.064 87.1548C110.366 88.7946 108.971 90.7382 107.88 92.8639C107.395 93.8356 107.516 94.6859 108.547 95.4755C111.094 92.5602 114.55 91.2848 118.068 90.1308C118.795 89.8879 119.523 89.6449 120.311 89.3412C122.312 88.5517 124.374 87.8229 126.375 86.9726C130.56 85.0291 133.834 82.1138 136.017 77.9838C136.684 76.6476 136.866 75.4329 136.442 73.9753C135.29 69.9668 133.592 66.2619 131.348 62.7393C131.227 62.4964 130.923 62.2534 130.499 61.8283ZM151.056 263.469C151.723 263.711 151.905 263.772 152.026 263.833C156.211 264.015 159.91 265.412 163.306 267.781C165.731 269.481 168.217 271.182 170.643 272.882C172.584 274.219 174.706 275.251 177.132 275.616C178.83 275.858 180.528 276.284 182.286 276.587C186.228 277.255 190.23 277.681 194.293 277.559C194.596 277.559 194.899 277.377 195.506 277.195C194.778 276.648 194.354 276.223 193.808 275.919C190.776 274.036 187.744 272.154 184.712 270.21C180.649 267.72 176.343 265.716 171.856 264.197C168.46 263.104 165.004 262.193 161.365 261.829C157.969 261.464 154.634 261.889 151.056 263.469ZM111.397 39.66C110.791 42.879 109.82 45.855 108.426 48.7095C107.779 50.1672 107.112 51.6046 106.425 53.0217C104.181 57.5768 102.968 62.3749 103.393 67.4766C103.595 69.4202 103.817 71.3434 104.06 73.2465C104.545 76.2225 104.605 79.1985 103.878 82.1138C103.756 82.5389 103.756 82.9641 103.756 83.3892C104.302 83.0855 104.666 82.7211 104.787 82.2352C105.272 80.2917 105.758 78.3482 106 76.3439C106.303 74.279 106.364 72.1532 106.546 70.0882C106.91 66.6264 108.123 63.5896 110.427 61.0387C111.943 59.3382 113.641 57.8198 115.278 56.2407C116.552 54.9652 117.886 53.6898 119.159 52.3536C119.766 51.807 120.19 51.1389 120.129 50.1064C116.976 47.0089 114.005 43.6078 111.397 39.66ZM136.32 278.166C133.531 277.012 130.863 276.587 128.134 276.648C125.83 276.648 123.647 277.134 121.767 278.652C120.615 279.563 119.341 280.414 118.31 281.446C116.006 283.815 113.762 286.305 111.579 288.734C107.819 292.864 104.06 296.873 99.3296 299.849C99.1477 299.97 99.0264 300.152 98.6626 300.517C99.269 300.517 99.5722 300.517 99.8754 300.456C104.605 299.424 109.093 297.784 113.156 295.051C115.703 293.35 118.189 291.589 120.554 289.645C125.466 285.819 130.256 281.871 135.653 278.774C135.775 278.713 135.896 278.531 136.32 278.166ZM198.598 105.497C196.355 108.655 195.021 111.51 194.899 114.911C194.839 118.616 195.142 122.26 196.233 125.782C197.386 129.426 199.023 132.828 200.903 136.107C202.419 138.658 203.935 141.209 205.451 143.76C207.998 148.254 210.302 152.931 211.697 157.972C211.818 158.336 212 158.701 212.182 159.126C212.425 158.944 212.667 158.822 212.728 158.701C213.031 157.729 213.334 156.696 213.698 155.725C214.426 153.842 214.244 151.959 213.637 150.076C212.425 146.189 210.666 142.606 208.422 139.205C206.906 136.897 205.512 134.589 204.177 132.22C199.933 124.446 198.053 116.065 198.598 107.137C198.659 106.833 198.659 106.469 198.598 105.497ZM67.5539 124.993C67.5539 125.114 67.5336 125.236 67.4932 125.357C70.0401 127.604 72.5871 129.851 75.1946 132.038C76.8319 133.496 78.5298 134.832 80.2884 136.229C84.0482 139.265 88.4143 140.845 93.2655 141.209C97.9955 141.634 102.665 142.12 107.395 142.545C107.698 142.606 108.001 142.484 108.547 142.363C106.728 140.237 104.727 138.658 102.544 137.443C99.6328 135.804 96.6614 134.346 93.5081 133.374C88.6569 131.856 83.745 130.398 78.9543 128.88C75.9223 127.969 72.9509 126.875 69.9795 125.904C69.1912 125.6 68.4028 125.296 67.5539 124.993ZM104.484 159.429C104.909 160.158 105.03 160.462 105.212 160.766C106 162.284 106.97 163.742 107.698 165.381C108.426 167.021 108.911 168.843 109.578 170.544C110.366 172.548 111.215 174.613 112.064 176.617C112.61 177.832 113.52 178.743 114.793 179.351C117.097 180.565 119.402 181.841 121.767 183.055C122.191 183.298 122.616 183.723 123.222 183.298C123.707 182.205 123.828 180.99 123.707 179.776C123.586 177.589 123.343 175.403 123.04 173.216C122.737 171.091 121.888 169.208 119.947 167.993C119.584 167.75 119.28 167.386 118.977 167.143C114.854 163.559 110.245 161.009 104.484 159.429ZM70.3433 175.524C65.3102 175.828 60.5195 176.435 55.7289 176.01C50.7564 175.524 46.2083 173.824 41.8422 172.002C40.7507 172.366 39.8411 172.73 38.9314 172.973C37.9612 173.156 36.9909 173.277 36.0813 173.399C35.1717 173.581 34.1408 173.338 33.1099 173.884C35.5356 176.132 37.9612 178.136 40.1443 180.383C41.3571 181.598 42.6912 182.205 44.3285 182.327C45.7232 182.387 47.118 182.509 48.5127 182.448C52.8788 182.266 57.1843 181.537 61.4291 180.201C64.2793 179.29 66.9475 178.014 69.4337 176.314C69.7369 176.132 70.0401 175.767 70.3433 175.524ZM102.119 301.428C106.303 301.732 110.427 301.489 114.429 300.517C114.833 300.395 115.238 300.254 115.642 300.092C120.857 298.148 125.648 295.476 129.771 291.71C131.227 290.334 132.662 288.916 134.077 287.459C137.533 283.875 140.747 280.11 144.75 277.073C144.871 276.952 144.931 276.769 145.174 276.223C144.446 276.466 143.961 276.648 143.476 276.83C140.747 277.741 138.079 278.956 135.593 280.353C132.258 282.296 129.165 284.544 126.133 286.973C123.465 289.038 120.857 291.224 118.128 293.289C113.459 296.751 108.486 299.667 102.786 301.124C102.544 301.185 102.362 301.306 102.119 301.428ZM216.002 132.342C216.306 131.734 216.609 131.37 216.669 130.945C216.912 129.487 217.215 128.029 217.215 126.572C217.155 124.568 216.973 122.563 216.73 120.559C216.366 118.008 215.82 115.518 215.396 113.028C214.911 110.173 214.79 107.319 215.396 104.404C215.517 104.1 215.457 103.735 215.517 103.553C213.941 101.185 212.303 98.9374 210.969 96.6295C209.635 94.3215 208.544 91.8921 207.209 89.0983C206.603 91.1026 206.542 92.7424 206.482 94.3823C206.421 98.4515 206.906 102.46 207.937 106.347C209.15 110.72 210.545 115.093 211.818 119.405C213.031 123.353 214.304 127.301 215.517 131.188C215.578 131.491 215.76 131.795 216.002 132.342ZM79.5608 77.6194C79.2576 80.5347 79.4395 83.3892 80.7129 85.9401C83.0173 90.3737 86.3525 93.8964 90.7186 96.4472C93.1443 97.8441 95.7518 98.8766 98.42 99.8484C102.544 101.245 106.485 103.128 109.82 106.043C110.002 106.165 110.245 106.165 110.73 106.286C110.427 105.557 110.245 105.072 110.002 104.646C108.001 101.063 105.151 98.2086 101.755 96.0221C98.2381 93.7142 94.5996 91.5884 90.9612 89.5234C86.2919 86.8511 82.4109 83.3892 80.1065 78.4697C79.9246 78.166 79.7427 77.8623 79.5608 77.6194ZM124.799 297.298C125.83 296.934 126.436 296.691 127.103 296.508C129.165 295.719 131.166 294.869 133.228 294.14C134.865 293.593 136.26 292.743 137.533 291.71C139.171 290.253 140.869 288.795 142.445 287.337C147.963 282.114 154.088 277.802 161.365 275.251C161.547 275.19 161.668 275.008 162.032 274.644C161.486 274.583 161.183 274.462 160.819 274.462C158.394 274.543 155.948 274.624 153.482 274.704C151.784 274.765 150.207 275.251 148.752 276.041C147.296 276.83 145.841 277.681 144.507 278.652C141.839 280.657 139.595 283.147 137.291 285.576C133.592 289.402 129.953 293.35 125.526 296.326C125.344 296.508 125.223 296.751 124.799 297.298ZM162.517 291.467C169.491 292.257 175.737 291.407 181.619 287.945C185.925 285.455 189.988 282.539 193.929 279.563C194.05 279.503 194.05 279.26 194.111 279.017C192.413 278.895 190.715 278.956 189.139 278.713C186.955 278.409 184.894 278.774 182.953 279.624C181.498 280.292 180.042 280.899 178.708 281.689C176.707 282.904 174.706 284.24 172.766 285.576C169.733 287.641 166.701 289.706 163.124 290.86C163.002 290.921 162.881 291.103 162.517 291.467ZM169.733 273.915C169.43 273.49 169.309 273.247 169.127 273.125C166.459 271.243 163.851 269.36 161.123 267.659C157.423 265.351 153.361 264.501 149.055 264.865C147.903 264.987 146.811 265.23 145.841 265.837C143.719 267.173 141.657 268.388 139.534 269.724C139.352 269.785 139.292 270.089 139.11 270.332C139.474 270.392 139.777 270.453 140.02 270.453C144.204 270.271 148.145 271.182 151.966 273.004C152.633 273.308 153.239 273.368 153.967 273.308C158.758 272.882 163.548 273.125 168.339 273.915C168.703 273.976 169.127 273.915 169.733 273.915ZM98.9051 72.7606C98.9051 72.3354 98.9658 71.971 98.9051 71.6674C98.6626 70.4527 98.3594 69.2987 98.1168 68.084C97.9349 66.9908 97.4498 66.2012 96.5402 65.5331C92.8411 62.9822 90.658 59.3381 89.5665 55.026C89.2026 53.8113 89.0207 52.4751 88.7175 51.1997C88.3941 49.9445 88.01 48.6893 87.5653 47.4341C87.444 47.0697 87.0802 46.8267 86.7164 46.2801C85.3216 48.7095 84.7758 51.1997 83.9875 53.5683C83.1992 55.937 82.1683 58.2449 81.9257 60.7958C82.3502 61.0995 82.7141 61.3424 83.1385 61.5246C85.5642 62.5571 87.6866 64.0147 89.5665 65.8975C91.0825 67.3552 92.6591 68.7521 94.2358 70.149C95.5699 71.3029 97.0253 72.214 98.9051 72.7606ZM106.546 138.233C106 137.383 105.758 137.018 105.515 136.654C103.574 134.164 101.209 132.099 98.8445 129.973C96.1763 127.604 93.0836 126.025 89.5665 125.357C87.2015 124.871 84.7152 124.568 82.2896 124.325C79.1363 124.021 76.0436 123.657 72.9509 122.928C71.071 122.563 69.1912 122.381 67.2507 122.138C66.8868 122.077 66.4623 122.199 65.674 122.32C66.5836 122.867 67.0687 123.231 67.6145 123.474C71.4955 125.114 75.4372 126.572 79.4395 127.726C84.0077 129.021 88.5356 130.398 93.023 131.856C95.0848 132.463 97.1465 133.313 99.087 134.224C101.452 135.378 103.696 136.715 106.546 138.233ZM226.251 120.134C223.886 114.911 220.611 110.538 217.518 106.104C217.276 105.8 216.912 105.558 216.427 105.132C216.245 105.8 216.124 106.226 216.063 106.651C215.82 108.837 216.124 111.024 216.488 113.149C217.033 116.247 217.579 119.344 218.004 122.503C218.549 126.45 218.367 130.337 216.73 134.103C216.548 134.467 216.427 134.893 216.427 135.318C216.427 135.682 216.609 135.986 216.73 136.35C218.731 134.953 219.641 133.981 220.49 131.977C220.934 130.844 221.339 129.69 221.703 128.515C222.673 125.479 223.704 122.503 226.251 120.134ZM72.5264 172.852C71.8594 170.726 70.9497 168.843 69.6763 167.143C67.7964 164.653 65.3102 162.891 62.3994 161.798C59.5493 160.766 56.5779 159.855 53.6672 158.944C50.8777 158.093 48.3308 156.757 46.1477 154.814C45.2987 154.024 44.5104 153.052 43.6614 152.202C40.872 152.992 36.4452 155.239 34.8079 156.636C35.1717 157.364 35.8388 157.729 36.5058 158.154C38.6282 159.49 40.9326 160.219 43.4189 160.523C46.0871 160.826 48.7552 161.069 51.4841 161.312C53.9097 161.494 56.3353 161.859 58.6397 162.648C63.8548 164.41 67.9784 167.386 70.4646 172.366C70.5859 172.548 70.6466 172.67 70.7072 172.852C71.1923 173.459 71.7381 173.399 72.5264 172.852ZM110.912 177.225C109.578 173.459 108.426 170.18 107.213 166.9C106.728 165.624 106.182 164.288 105.454 163.134C104.787 161.92 103.878 160.826 102.968 159.733C102.362 159.004 101.513 158.518 100.542 158.397C98.2381 157.972 95.8731 157.547 93.5687 157.182C93.2049 157.122 92.8411 157.122 92.7198 157.547C93.69 158.701 94.7816 159.733 95.6305 160.887C96.5402 162.163 97.2678 163.559 98.0562 164.956C98.6626 165.989 99.2083 167.143 99.8754 168.115C101.007 169.896 102.22 171.617 103.514 173.277C103.999 173.884 104.605 174.431 105.272 174.735C106.97 175.585 108.79 176.314 110.912 177.225ZM112.853 108.23C114.49 113.514 115.399 118.919 117.825 124.021C118.068 123.657 118.31 123.474 118.31 123.231C119.28 118.98 121.342 115.214 123.768 111.692C125.769 108.716 127.831 105.8 129.893 102.824C130.196 102.399 130.438 101.853 130.681 101.428C125.284 105.072 119.462 107.501 112.853 108.23ZM210.666 171.212C212.667 171.698 214.183 171.212 215.517 170.422C216.851 169.633 218.125 168.661 219.338 167.629C220.672 166.535 221.824 165.199 223.158 164.045C223.825 163.438 224.189 162.77 224.492 161.92C225.26 159.409 226.069 156.919 226.918 154.449C228.131 150.987 229.283 147.465 229.828 143.821C229.889 143.395 229.768 142.91 229.768 142.302C227.645 144.185 226.675 145.4 225.644 147.586C223.946 151.23 222.309 154.935 220.672 158.579C219.156 161.859 217.518 165.078 214.85 167.568C213.637 168.783 212.303 169.876 210.666 171.212ZM124.071 184.392C129.286 187.732 134.198 191.072 138.746 194.959C138.807 195.02 138.867 195.02 138.989 195.02C139.049 195.02 139.11 194.959 139.171 194.899C137.655 189.615 128.013 175.221 124.071 172.609C124.738 176.557 125.163 180.383 124.071 184.392ZM44.4497 183.42C44.6317 183.966 44.6317 184.149 44.753 184.209C46.4509 185.728 48.3914 186.578 50.6957 186.578C57.4269 186.578 63.6729 184.999 69.0699 180.747C71.9806 178.44 75.0127 176.192 77.9841 173.884C77.9841 173.824 77.9841 173.702 77.9841 173.459C75.9829 173.763 74.1031 174.006 72.4658 175.403C69.4337 177.954 65.9772 179.836 62.2175 181.051C56.9417 182.752 51.5447 183.723 45.9658 183.481C45.5413 183.42 45.1168 183.42 44.4497 183.42ZM238.682 249.257C241.229 246.584 242.502 243.487 243.109 240.086C243.169 239.66 243.169 239.175 243.109 238.749C242.684 235.53 241.835 232.372 240.319 229.457C240.137 229.214 240.016 228.789 239.41 228.971C239.107 229.943 238.864 231.036 238.5 232.129C238.136 233.283 237.651 234.437 237.227 235.53C236.923 236.259 237.045 236.927 237.227 237.595C238.015 240.936 238.379 244.337 238.5 247.738C238.561 248.285 238.621 248.771 238.682 249.257ZM229.707 219.679C229.161 223.262 229.161 226.299 229.04 229.335C228.919 232.98 230.192 235.956 232.497 238.628C233.406 239.721 234.377 240.693 235.347 241.725C235.65 241.968 235.893 242.393 236.62 242.09C236.56 241.543 236.56 240.936 236.438 240.389C235.771 237.778 235.286 235.105 234.377 232.554C233.042 228.424 231.405 224.355 229.707 219.679ZM150.147 273.429C147.236 272.093 144.628 271.668 141.899 271.486C137.655 271.182 133.774 272.518 130.074 274.401C129.589 274.644 128.922 274.644 128.74 275.494C131.651 275.676 134.38 276.223 137.048 277.195C137.836 277.498 138.564 277.377 139.292 277.012C142.445 275.636 145.7 274.624 149.055 273.976C149.298 273.915 149.479 273.733 150.147 273.429ZM17.2221 163.924C18.2327 164.41 19.2636 164.875 20.3147 165.321C23.7106 166.961 26.8639 169.086 29.896 171.334C30.6237 171.88 31.412 172.427 32.4429 172.487C34.626 172.548 36.809 172.487 38.9315 171.88C39.2953 171.759 39.5379 171.455 39.9017 171.212C34.0802 167.629 22.3765 163.559 17.2221 163.924ZM151.177 246.584C147.236 245.248 131.772 245.066 128.801 246.22C129.044 246.402 129.286 246.584 129.468 246.706C132.258 247.556 134.986 248.406 137.776 249.196C138.443 249.378 139.171 249.439 139.838 249.439C143.476 249.317 146.993 248.588 150.328 247.192C150.571 247.07 150.814 246.827 151.177 246.584ZM243.23 244.276C242.927 244.823 242.806 245.127 242.624 245.37C241.593 247.192 240.623 249.074 239.531 250.836C238.925 251.747 238.621 252.658 238.561 253.751C238.318 256.909 238.015 260.067 237.772 263.165C237.611 265.108 237.469 267.032 237.348 268.935C237.348 269.36 237.166 269.846 237.772 270.089C238.864 266.485 239.955 262.881 241.047 259.278C241.29 258.367 241.593 257.395 241.775 256.484C242.32 253.447 242.866 250.471 243.351 247.434C243.533 246.523 243.655 245.552 243.23 244.276ZM236.56 233.891C236.802 233.465 237.166 233.162 237.227 232.797C237.631 231.38 237.995 229.943 238.318 228.485C238.682 227.028 238.379 225.691 237.348 224.598C235.407 222.533 233.588 220.407 231.708 218.342C231.648 218.282 231.405 218.403 231.284 218.403C231.526 221.501 234.073 228.91 236.56 233.891ZM144.264 250.168C144.689 250.957 145.356 250.836 145.902 250.896C150.632 251.382 155.362 251.079 159.97 249.925C160.819 249.682 161.729 249.621 162.76 248.771C159.788 247.86 157.06 247.252 154.331 246.827C153.785 246.766 153.118 247.07 152.633 247.313C150.268 248.467 147.782 249.317 145.174 249.803C144.871 249.864 144.628 250.046 144.264 250.168ZM147.296 244.216C146.933 243.426 146.751 242.879 146.508 242.333C145.295 239.903 143.415 238.689 140.626 238.992C138.746 239.175 136.806 239.235 134.986 239.903C135.411 240.754 136.078 240.632 136.684 240.754C138.443 241.3 140.201 241.847 141.717 242.94C143.294 244.155 144.992 244.458 147.296 244.216ZM148.812 244.519C150.814 244.884 152.633 245.187 154.452 245.43C156.271 245.734 158.09 246.402 160.455 246.281C155.786 243.487 151.481 241.118 146.266 239.843C147.175 241.604 147.963 243.001 148.812 244.519ZM140.565 244.094C138.2 242.029 135.471 241.361 132.561 241.118C132.197 241.057 131.712 241.179 131.348 241.361C130.074 242.09 128.801 242.819 127.528 243.608C127.346 243.73 127.164 243.912 126.982 244.033C127.164 244.216 127.224 244.398 127.346 244.398C131.752 244.317 136.159 244.216 140.565 244.094Z" fill="url(#paint0_linear_2_249)" fill-opacity="0.7"/>
</g>
<defs>
<linearGradient id="paint0_linear_2_249" x1="-115068" y1="80881.2" x2="212.004" y2="80881.2" gradientUnits="userSpaceOnUse">
<stop stop-color="#A87D56"/>
<stop offset="0.3" stop-color="#E8C597"/>
<stop offset="0.7" stop-color="#8D6531"/>
<stop offset="1" stop-color="#A87D56"/>
</linearGradient>
<clipPath id="clip0_2_249">
<rect width="314" height="265" fill="white" transform="translate(265) rotate(90)"/>
</clipPath>
</defs>
</svg>
